<svg xmlns="http://www.w3.org/2000/svg" viewBox="0 0 120 100" style="
fill: white;
background-color: #18181b;
margin-left: .05rem;
padding: .1rem;">
  <path d="M46.66,81.839c-6.11,0-12.19-1.105-17.583-3.195c-9.319-3.598-16.64-10.685-20.61-19.953
    C6.9,54.968,5.9,51.045,5.486,47.011c-0.006-0.055-0.01-0.11-0.014-0.167c-0.009-0.172-0.015-0.585-0.016-1.12
    C5.454,45.088,5.448,43.52,5.39,42.8c-0.347-0.983-0.27-2.106,0.306-3.069c1.009-1.691,3.182-2.266,4.897-1.298
    c2.025,1.146,5.101,2.669,7.974,3.781c-1.221-3.68-2.045-8.194-0.697-11.954c0.372-1.036,1.193-1.847,2.233-2.205
    c1.042-0.359,2.188-0.224,3.118,0.363c3.949,2.496,11.18,6.292,15.647,7.104c-0.011-0.081-0.02-0.163-0.025-0.244
    c-0.229-3.354-0.221-6.359,0.026-9.185c0.798-9.352,6.147-16.355,14.674-19.208c5.52-1.841,11.562-2.34,16.778-1.373
    c2.855,0.536,5.351,1.537,7.423,2.976c1.066,0.73,2.125,1.664,3.214,2.838c0.323,0.34,0.622,0.778,1.034,1.386
    c0.11,0.16,0.264,0.386,0.415,0.601l9.179,1.554c1.229,0.208,2.266,1.034,2.744,2.186c0.478,1.152,0.329,2.469-0.394,3.487
    l-6.214,8.758c0.119,0.634,0.299,1.436,0.386,1.818c0.12,0.54,0.209,0.961,0.234,1.142c0.011,0.074,0.02,0.147,0.025,0.222
    c0.331,3.972,0.304,7.969-0.081,11.88c-1.085,11.486-5.809,21.579-12.955,27.678C67.932,78.358,57.748,81.839,46.66,81.839z
    M12.874,47.686c0.409,2.822,1.171,5.565,2.267,8.172c3.186,7.436,9.066,13.134,16.552,16.023
    c4.571,1.772,9.744,2.707,14.968,2.707c9.228,0,17.962-2.939,23.964-8.064c5.728-4.887,9.534-13.218,10.447-22.859
    c0.337-3.435,0.365-6.933,0.085-10.414c-0.022-0.105-0.068-0.305-0.122-0.54c-0.693-3.082-1.112-4.942,0.056-6.595l3.593-5.062
    l-4.661-0.789c-1.856-0.292-2.859-1.764-4.021-3.468c-0.159-0.233-0.3-0.447-0.411-0.593c-0.714-0.761-1.348-1.323-1.962-1.744
    c-1.247-0.866-2.801-1.473-4.637-1.817c-4.003-0.744-8.789-0.334-13.149,1.122c-7.354,2.46-9.361,8.402-9.749,12.954
    c-0.21,2.416-0.219,5.01-0.024,7.929c0.105,0.726,0.518,3.557,0.518,3.557c0.214,1.468-0.49,2.919-1.775,3.661
    c-1.225,0.707-2.709,1.066-4.412,1.066c-4.666,0-11.045-2.847-15.579-5.238c0.697,2.97,2.135,6.136,3.092,7.808
    c0.622,1.084,0.643,2.414,0.052,3.517c-0.59,1.102-1.705,1.823-2.951,1.907C21.607,51.15,16.713,49.407,12.874,47.686z"/>
</svg>